<svg xmlns="http://www.w3.org/2000/svg" viewBox="0 0 1000 1000" xml:space="preserve"><path d="M488.41 11.26c-6.89 1.82-18.86 12.77-81.31 75.43-70.77 70.77-73.4 73.61-75.84 83.54-7.3 31.63 22.3 55.36 51.71 41.57 4.87-2.43 21.7-17.44 42.58-38.53 18.86-19.06 35.08-34.67 35.89-34.67.81 0 1.82 108.28 2.03 240.69l.61 240.89 4.66 8.11c7.1 12.37 16.83 18.04 30.62 18.25 14.8 0 26.16-6.89 32.44-19.67l4.26-8.92V136.17l38.12 38.53c35.89 36.5 38.53 38.73 48.26 40.96 18.66 4.26 35.89-4.05 43.6-21.29 4.26-9.33 4.67-15.01 1.62-26.36-1.83-6.9-13.59-19.47-72.39-78.67-38.73-38.73-73-72.19-76.44-74.42-7.91-4.67-20.28-6.29-30.42-3.66z"/><path d="M179.19 259.05c-21.9 6.08-37.51 18.66-46.43 37.72l-5.27 11.15v624.54l4.66 11.56c5.88 14.6 22.1 32.65 35.69 39.74l10.34 5.48 317.74.61c316.73.41 317.74.41 328.89-3.65 12.98-4.87 29.2-18.65 36.29-31.02 12.37-20.88 11.76-1.62 11.15-340.04l-.61-309.22-4.87-9.13c-7.5-14.19-12.37-19.87-23.32-27.37-18.25-12.37-26.76-13.38-105.03-12.77l-69.55.61-9.53 5.48c-15.61 9.33-21.7 27.17-14.8 43.6 4.26 10.14 8.52 14.6 18.25 19.06 7.3 3.45 14.19 3.85 67.32 3.85h59.21l5.68 4.86 5.68 4.87.61 279.01.41 279.21-4.87 4.87-5.07 5.07H499.97c-284.49 0-291.99 0-296.65-3.85l-4.87-3.85V338.98l5.68-4.87 5.68-4.86h116.6l11.15-5.68c29.4-14.8 25.75-54.14-6.08-64.89-9.95-3.49-139.92-3.08-152.29.37z"/></svg>
